<svg id="svg" xmlns="http://www.w3.org/2000/svg" xmlns:xlink="http://www.w3.org/1999/xlink" width="400" height="400" viewBox="0, 0, 400,400" version="1.1"><g id="svgg"><path id="path0" d="M83.400 0.436 C 64.419 2.434,45.867 9.021,35.400 17.479 C 28.453 23.093,18.000 33.542,18.000 34.873 C 18.000 35.067,17.730 35.329,17.400 35.455 C 17.070 35.582,16.800 35.863,16.800 36.079 C 16.800 36.296,15.653 38.302,14.252 40.536 C 7.205 51.773,0.191 72.011,1.312 77.871 C 1.409 78.382,1.366 78.800,1.216 78.800 C 0.108 78.800,-0.011 90.509,-0.011 200.000 C -0.011 309.491,0.108 321.200,1.216 321.200 C 1.366 321.200,1.409 321.618,1.312 322.129 C 0.191 327.989,7.205 348.227,14.252 359.464 C 15.653 361.698,16.800 363.704,16.800 363.921 C 16.800 364.137,17.070 364.418,17.400 364.545 C 17.730 364.671,18.000 364.933,18.000 365.127 C 18.000 366.458,28.453 376.907,35.400 382.521 C 45.838 390.955,63.942 397.417,82.722 399.410 C 90.925 400.281,309.075 400.281,317.278 399.410 C 336.058 397.417,354.162 390.955,364.600 382.521 C 371.511 376.936,382.000 366.458,382.000 365.139 C 382.000 364.953,382.180 364.800,382.400 364.800 C 382.620 364.800,382.800 364.626,382.800 364.414 C 382.800 364.201,383.783 362.519,384.985 360.676 C 392.366 349.352,400.108 327.443,398.670 321.947 C 398.563 321.536,398.606 321.200,398.766 321.200 C 399.895 321.200,400.011 309.876,400.011 200.000 C 400.011 90.509,399.892 78.800,398.784 78.800 C 398.634 78.800,398.591 78.382,398.688 77.871 C 399.809 72.011,392.795 51.773,385.748 40.536 C 384.347 38.302,383.200 36.277,383.200 36.036 C 383.200 35.796,383.014 35.600,382.787 35.600 C 382.561 35.600,382.275 35.340,382.153 35.023 C 381.322 32.855,371.647 23.185,364.600 17.479 C 355.458 10.075,338.334 3.488,321.600 0.938 C 316.541 0.168,90.482 -0.309,83.400 0.436 M172.953 148.897 C 173.963 150.501,162.094 175.872,147.162 204.025 C 144.763 208.549,142.800 212.640,142.800 213.117 C 142.800 214.850,149.372 228.235,155.804 239.600 C 156.738 241.250,158.074 243.658,158.773 244.950 C 159.473 246.243,160.853 248.481,161.841 249.923 C 164.243 253.432,163.761 255.646,160.991 253.831 C 158.534 252.221,146.395 230.797,141.878 220.100 C 140.479 216.785,140.536 216.748,136.965 223.300 C 135.257 226.435,132.115 232.060,129.984 235.800 C 125.710 243.299,119.142 255.985,117.492 259.930 C 116.584 262.102,116.304 262.442,115.517 262.330 C 112.644 261.923,116.634 252.912,134.651 219.119 C 138.601 211.711,138.528 212.449,135.987 205.480 C 130.304 189.899,127.877 176.850,127.826 161.600 C 127.797 152.903,128.118 151.400,130.005 151.400 L 131.000 151.400 131.261 160.649 C 131.652 174.487,133.455 184.801,137.987 199.118 C 140.184 206.059,140.608 207.156,140.944 206.767 C 141.482 206.141,151.496 186.617,159.800 170.000 C 171.556 146.476,171.493 146.578,172.953 148.897 M188.783 173.568 C 189.074 174.111,189.018 175.307,188.592 177.668 C 186.767 187.786,186.329 192.755,186.098 206.000 C 185.940 215.056,186.031 215.228,187.999 209.600 C 193.333 194.351,198.800 189.902,198.800 200.810 C 198.800 204.403,199.443 207.600,200.166 207.600 C 201.514 207.600,205.315 202.385,207.695 197.269 C 211.639 188.790,216.629 185.698,220.100 189.582 C 222.019 191.729,221.307 193.014,218.964 191.632 C 215.600 189.647,211.981 193.026,210.217 199.800 C 209.206 203.681,209.604 203.270,213.897 196.000 C 216.641 191.353,218.397 191.265,218.402 195.776 C 218.413 205.410,227.747 204.518,230.589 194.612 C 231.941 189.896,233.650 187.564,235.020 188.565 C 235.764 189.109,235.750 189.232,234.482 193.375 C 233.767 195.713,233.081 198.475,232.959 199.513 L 232.738 201.400 235.214 197.600 C 240.916 188.852,242.136 188.822,242.994 197.412 C 244.040 207.884,245.895 208.173,252.505 198.896 C 256.960 192.643,258.841 190.635,261.423 189.371 C 264.806 187.716,267.600 188.662,267.600 191.462 C 267.600 193.095,266.718 193.257,265.763 191.800 C 263.431 188.241,255.629 196.170,254.173 203.578 L 253.902 204.956 255.051 204.225 C 256.988 202.993,257.884 202.017,260.608 198.174 C 264.725 192.366,266.392 193.035,266.398 200.500 C 266.400 203.636,266.429 203.651,268.800 201.748 C 269.790 200.953,271.518 199.620,272.639 198.784 C 274.657 197.281,274.681 197.237,274.924 194.635 C 275.476 188.727,277.800 188.457,277.800 194.301 C 277.800 196.336,277.837 198.001,277.882 198.001 C 277.927 198.000,278.647 197.536,279.482 196.968 C 281.175 195.817,288.572 195.609,289.644 196.683 C 290.792 197.834,289.310 198.400,285.151 198.400 C 279.915 198.400,278.471 199.858,277.596 206.028 C 277.112 209.444,277.032 209.600,275.776 209.600 L 274.800 209.600 274.800 205.000 C 274.800 199.546,275.161 199.684,270.593 203.396 C 266.494 206.726,266.413 206.895,266.404 212.071 C 266.377 228.860,257.649 244.349,250.345 240.572 C 244.040 237.311,249.392 221.950,261.423 208.777 C 263.262 206.763,263.834 204.326,263.278 200.867 L 263.000 199.134 260.156 202.495 C 255.816 207.622,252.000 208.755,252.000 204.917 C 252.000 203.925,251.933 203.953,250.035 205.729 C 244.889 210.542,241.217 207.517,240.530 197.901 C 240.226 193.644,240.089 193.697,236.950 199.289 C 232.924 206.463,230.856 207.775,229.589 203.961 L 228.979 202.123 227.235 203.462 C 222.573 207.041,217.880 205.566,216.248 200.011 L 215.723 198.222 214.721 199.811 C 214.171 200.685,213.430 201.963,213.075 202.652 C 211.211 206.266,208.821 207.439,207.335 205.469 L 206.633 204.539 205.149 206.417 C 200.274 212.585,196.762 210.923,196.146 202.157 C 195.900 198.653,195.818 198.357,195.289 199.042 C 193.690 201.114,190.838 208.299,188.956 215.000 C 186.187 224.855,183.186 221.734,182.527 208.314 L 182.278 203.228 180.439 204.756 C 172.342 211.482,164.915 209.712,164.112 200.866 C 163.474 193.820,170.803 185.042,173.777 189.289 C 175.262 191.409,173.955 194.420,172.389 192.486 L 171.703 191.639 170.897 192.519 C 167.361 196.380,166.821 204.299,169.978 205.988 C 172.053 207.099,175.979 205.770,179.275 202.842 C 182.330 200.127,182.663 199.295,182.964 193.600 C 183.655 180.558,186.775 169.816,188.783 173.568 M261.316 212.159 C 251.973 222.801,246.700 237.136,251.555 238.696 C 255.182 239.862,259.289 234.756,261.192 226.718 C 262.114 222.821,263.312 213.441,263.128 211.554 L 263.000 210.240 261.316 212.159 " stroke="none" fill="#fcfcfc" fill-rule="evenodd"></path><path id="path1" d="M170.490 149.079 C 170.053 149.695,165.243 159.110,159.800 170.000 C 151.496 186.617,141.482 206.141,140.944 206.767 C 140.608 207.156,140.184 206.059,137.987 199.118 C 133.455 184.801,131.652 174.487,131.261 160.649 L 131.000 151.400 130.005 151.400 C 128.118 151.400,127.797 152.903,127.826 161.600 C 127.877 176.850,130.304 189.899,135.987 205.480 C 138.528 212.449,138.601 211.711,134.651 219.119 C 116.634 252.912,112.644 261.923,115.517 262.330 C 116.304 262.442,116.584 262.102,117.492 259.930 C 119.142 255.985,125.710 243.299,129.984 235.800 C 132.115 232.060,135.257 226.435,136.965 223.300 C 140.536 216.748,140.479 216.785,141.878 220.100 C 146.395 230.797,158.534 252.221,160.991 253.831 C 163.761 255.646,164.243 253.432,161.841 249.923 C 160.853 248.481,159.473 246.243,158.773 244.950 C 158.074 243.658,156.738 241.250,155.804 239.600 C 149.372 228.235,142.800 214.850,142.800 213.117 C 142.800 212.640,144.763 208.549,147.162 204.025 C 162.094 175.872,173.963 150.501,172.953 148.897 C 172.260 147.796,171.351 147.863,170.490 149.079 M186.622 173.710 C 185.225 175.842,183.370 185.928,182.964 193.600 C 182.663 199.295,182.330 200.127,179.275 202.842 C 175.979 205.770,172.053 207.099,169.978 205.988 C 166.821 204.299,167.361 196.380,170.897 192.519 L 171.703 191.639 172.389 192.486 C 173.955 194.420,175.262 191.409,173.777 189.289 C 170.803 185.042,163.474 193.820,164.112 200.866 C 164.915 209.712,172.342 211.482,180.439 204.756 L 182.278 203.228 182.527 208.314 C 183.186 221.734,186.187 224.855,188.956 215.000 C 190.838 208.299,193.690 201.114,195.289 199.042 C 195.818 198.357,195.900 198.653,196.146 202.157 C 196.762 210.923,200.274 212.585,205.149 206.417 L 206.633 204.539 207.335 205.469 C 208.821 207.439,211.211 206.266,213.075 202.652 C 213.430 201.963,214.171 200.685,214.721 199.811 L 215.723 198.222 216.248 200.011 C 217.880 205.566,222.573 207.041,227.235 203.462 L 228.979 202.123 229.589 203.961 C 230.856 207.775,232.924 206.463,236.950 199.289 C 240.089 193.697,240.226 193.644,240.530 197.901 C 241.217 207.517,244.889 210.542,250.035 205.729 C 251.933 203.953,252.000 203.925,252.000 204.917 C 252.000 208.755,255.816 207.622,260.156 202.495 L 263.000 199.134 263.278 200.867 C 263.834 204.326,263.262 206.763,261.423 208.777 C 249.392 221.950,244.040 237.311,250.345 240.572 C 257.649 244.349,266.377 228.860,266.404 212.071 C 266.413 206.895,266.494 206.726,270.593 203.396 C 275.161 199.684,274.800 199.546,274.800 205.000 L 274.800 209.600 275.776 209.600 C 277.032 209.600,277.112 209.444,277.596 206.028 C 278.471 199.858,279.915 198.400,285.151 198.400 C 289.310 198.400,290.792 197.834,289.644 196.683 C 288.572 195.609,281.175 195.817,279.482 196.968 C 278.647 197.536,277.927 198.000,277.882 198.001 C 277.837 198.001,277.800 196.336,277.800 194.301 C 277.800 188.457,275.476 188.727,274.924 194.635 C 274.681 197.237,274.657 197.281,272.639 198.784 C 271.518 199.620,269.790 200.953,268.800 201.748 C 266.429 203.651,266.400 203.636,266.398 200.500 C 266.392 193.035,264.725 192.366,260.608 198.174 C 257.884 202.017,256.988 202.993,255.051 204.225 L 253.902 204.956 254.173 203.578 C 255.629 196.170,263.431 188.241,265.763 191.800 C 266.718 193.257,267.600 193.095,267.600 191.462 C 267.600 188.662,264.806 187.716,261.423 189.371 C 258.841 190.635,256.960 192.643,252.505 198.896 C 245.895 208.173,244.040 207.884,242.994 197.412 C 242.136 188.822,240.916 188.852,235.214 197.600 L 232.738 201.400 232.959 199.513 C 233.081 198.475,233.767 195.713,234.482 193.375 C 235.750 189.232,235.764 189.109,235.020 188.565 C 233.650 187.564,231.941 189.896,230.589 194.612 C 227.747 204.518,218.413 205.410,218.402 195.776 C 218.397 191.265,216.641 191.353,213.897 196.000 C 209.604 203.270,209.206 203.681,210.217 199.800 C 211.981 193.026,215.600 189.647,218.964 191.632 C 221.307 193.014,222.019 191.729,220.100 189.582 C 216.629 185.698,211.639 188.790,207.695 197.269 C 205.315 202.385,201.514 207.600,200.166 207.600 C 199.443 207.600,198.800 204.403,198.800 200.810 C 198.800 189.902,193.333 194.351,187.999 209.600 C 186.031 215.228,185.940 215.056,186.098 206.000 C 186.329 192.755,186.767 187.786,188.592 177.668 C 189.380 173.303,188.304 171.143,186.622 173.710 M262.616 218.134 C 260.903 232.247,256.567 240.307,251.555 238.696 C 246.700 237.136,251.973 222.801,261.316 212.159 L 263.000 210.240 263.128 211.554 C 263.198 212.276,262.968 215.237,262.616 218.134 " stroke="none" fill="#000000" fill-rule="evenodd"></path></g></svg>