<svg id="svg" version="1.1" xmlns="http://www.w3.org/2000/svg" xmlns:xlink="http://www.w3.org/1999/xlink" width="400" height="400" viewBox="0, 0, 400,400"><g id="svgg"><path id="path1" d="M170.490 149.079 C 170.053 149.695,165.243 159.110,159.800 170.000 C 151.496 186.617,141.482 206.141,140.944 206.767 C 140.608 207.156,140.184 206.059,137.987 199.118 C 133.455 184.801,131.652 174.487,131.261 160.649 L 131.000 151.400 130.005 151.400 C 128.118 151.400,127.797 152.903,127.826 161.600 C 127.877 176.850,130.304 189.899,135.987 205.480 C 138.528 212.449,138.601 211.711,134.651 219.119 C 116.634 252.912,112.644 261.923,115.517 262.330 C 116.304 262.442,116.584 262.102,117.492 259.930 C 119.142 255.985,125.710 243.299,129.984 235.800 C 132.115 232.060,135.257 226.435,136.965 223.300 C 140.536 216.748,140.479 216.785,141.878 220.100 C 146.395 230.797,158.534 252.221,160.991 253.831 C 163.761 255.646,164.243 253.432,161.841 249.923 C 160.853 248.481,159.473 246.243,158.773 244.950 C 158.074 243.658,156.738 241.250,155.804 239.600 C 149.372 228.235,142.800 214.850,142.800 213.117 C 142.800 212.640,144.763 208.549,147.162 204.025 C 162.094 175.872,173.963 150.501,172.953 148.897 C 172.260 147.796,171.351 147.863,170.490 149.079 M186.622 173.710 C 185.225 175.842,183.370 185.928,182.964 193.600 C 182.663 199.295,182.330 200.127,179.275 202.842 C 175.979 205.770,172.053 207.099,169.978 205.988 C 166.821 204.299,167.361 196.380,170.897 192.519 L 171.703 191.639 172.389 192.486 C 173.955 194.420,175.262 191.409,173.777 189.289 C 170.803 185.042,163.474 193.820,164.112 200.866 C 164.915 209.712,172.342 211.482,180.439 204.756 L 182.278 203.228 182.527 208.314 C 183.186 221.734,186.187 224.855,188.956 215.000 C 190.838 208.299,193.690 201.114,195.289 199.042 C 195.818 198.357,195.900 198.653,196.146 202.157 C 196.762 210.923,200.274 212.585,205.149 206.417 L 206.633 204.539 207.335 205.469 C 208.821 207.439,211.211 206.266,213.075 202.652 C 213.430 201.963,214.171 200.685,214.721 199.811 L 215.723 198.222 216.248 200.011 C 217.880 205.566,222.573 207.041,227.235 203.462 L 228.979 202.123 229.589 203.961 C 230.856 207.775,232.924 206.463,236.950 199.289 C 240.089 193.697,240.226 193.644,240.530 197.901 C 241.217 207.517,244.889 210.542,250.035 205.729 C 251.933 203.953,252.000 203.925,252.000 204.917 C 252.000 208.755,255.816 207.622,260.156 202.495 L 263.000 199.134 263.278 200.867 C 263.834 204.326,263.262 206.763,261.423 208.777 C 249.392 221.950,244.040 237.311,250.345 240.572 C 257.649 244.349,266.377 228.860,266.404 212.071 C 266.413 206.895,266.494 206.726,270.593 203.396 C 275.161 199.684,274.800 199.546,274.800 205.000 L 274.800 209.600 275.776 209.600 C 277.032 209.600,277.112 209.444,277.596 206.028 C 278.471 199.858,279.915 198.400,285.151 198.400 C 289.310 198.400,290.792 197.834,289.644 196.683 C 288.572 195.609,281.175 195.817,279.482 196.968 C 278.647 197.536,277.927 198.000,277.882 198.001 C 277.837 198.001,277.800 196.336,277.800 194.301 C 277.800 188.457,275.476 188.727,274.924 194.635 C 274.681 197.237,274.657 197.281,272.639 198.784 C 271.518 199.620,269.790 200.953,268.800 201.748 C 266.429 203.651,266.400 203.636,266.398 200.500 C 266.392 193.035,264.725 192.366,260.608 198.174 C 257.884 202.017,256.988 202.993,255.051 204.225 L 253.902 204.956 254.173 203.578 C 255.629 196.170,263.431 188.241,265.763 191.800 C 266.718 193.257,267.600 193.095,267.600 191.462 C 267.600 188.662,264.806 187.716,261.423 189.371 C 258.841 190.635,256.960 192.643,252.505 198.896 C 245.895 208.173,244.040 207.884,242.994 197.412 C 242.136 188.822,240.916 188.852,235.214 197.600 L 232.738 201.400 232.959 199.513 C 233.081 198.475,233.767 195.713,234.482 193.375 C 235.750 189.232,235.764 189.109,235.020 188.565 C 233.650 187.564,231.941 189.896,230.589 194.612 C 227.747 204.518,218.413 205.410,218.402 195.776 C 218.397 191.265,216.641 191.353,213.897 196.000 C 209.604 203.270,209.206 203.681,210.217 199.800 C 211.981 193.026,215.600 189.647,218.964 191.632 C 221.307 193.014,222.019 191.729,220.100 189.582 C 216.629 185.698,211.639 188.790,207.695 197.269 C 205.315 202.385,201.514 207.600,200.166 207.600 C 199.443 207.600,198.800 204.403,198.800 200.810 C 198.800 189.902,193.333 194.351,187.999 209.600 C 186.031 215.228,185.940 215.056,186.098 206.000 C 186.329 192.755,186.767 187.786,188.592 177.668 C 189.380 173.303,188.304 171.143,186.622 173.710 M262.616 218.134 C 260.903 232.247,256.567 240.307,251.555 238.696 C 246.700 237.136,251.973 222.801,261.316 212.159 L 263.000 210.240 263.128 211.554 C 263.198 212.276,262.968 215.237,262.616 218.134 " stroke="none" fill="#000000" fill-rule="evenodd"></path></g></svg>